<?xml version="1.0" encoding="UTF-8" standalone="no"?>
<!-- Created with Inkscape (http://www.inkscape.org/) -->

<svg
   xmlns:dc="http://purl.org/dc/elements/1.1/"
   xmlns:cc="http://creativecommons.org/ns#"
   xmlns:rdf="http://www.w3.org/1999/02/22-rdf-syntax-ns#"
   xmlns:svg="http://www.w3.org/2000/svg"
   xmlns="http://www.w3.org/2000/svg"
   xmlns:sodipodi="http://sodipodi.sourceforge.net/DTD/sodipodi-0.dtd"
   xmlns:inkscape="http://www.inkscape.org/namespaces/inkscape"
   width="200.32738mm"
   height="199.9494mm"
   viewBox="0 0 200.32738 199.9494"
   version="1.1"
   id="svg8"
   inkscape:version="0.92.4 (5da689c313, 2019-01-14)"
   sodipodi:docname="go_board_logo.svg">
  <defs
     id="defs2" />
  <sodipodi:namedview
     id="base"
     pagecolor="#ffffff"
     bordercolor="#666666"
     borderopacity="1.0"
     inkscape:pageopacity="0.0"
     inkscape:pageshadow="2"
     inkscape:zoom="0.7"
     inkscape:cx="-18.879615"
     inkscape:cy="445.78049"
     inkscape:document-units="mm"
     inkscape:current-layer="layer2"
     showgrid="false"
     fit-margin-top="0"
     fit-margin-left="0"
     fit-margin-right="0"
     fit-margin-bottom="0"
     inkscape:window-width="1920"
     inkscape:window-height="1017"
     inkscape:window-x="-8"
     inkscape:window-y="-8"
     inkscape:window-maximized="1" />
  <metadata
     id="metadata5">
    <rdf:RDF>
      <cc:Work
         rdf:about="">
        <dc:format>image/svg+xml</dc:format>
        <dc:type
           rdf:resource="http://purl.org/dc/dcmitype/StillImage" />
        <dc:title></dc:title>
      </cc:Work>
    </rdf:RDF>
  </metadata>
  <g
     inkscape:groupmode="layer"
     id="layer2"
     inkscape:label="Board"
     style="display:inline"
     transform="translate(426.35715,79.464287)">
    <g
       inkscape:groupmode="layer"
       id="layer7"
       inkscape:label="Background"
       style="display:inline">
      <rect
         style="display:inline;opacity:1;fill:#dcb35c;stroke-width:2.08477402"
         y="-79.464287"
         x="-426.35715"
         id="rect6191"
         height="199.9494"
         width="200.32738" />
    </g>
    <g
       inkscape:groupmode="layer"
       id="layer5"
       inkscape:label="Lines"
       style="display:inline">
      <path
         sodipodi:nodetypes="cccccccccccccccccccccccccccc"
         style="display:inline;fill:none;stroke:#000000;stroke-width:0.46620467"
         inkscape:connector-curvature="0"
         id="path6197"
         d="M -405.19048,-71.526792 V 113.30356 m 13.22917,0 V -71.526792 m 13.22917,0 V 113.30356 m 13.22916,0 V -71.526792 m 13.22917,0 V 113.30356 m 13.22915,0 V -71.526792 m 13.22917,0 V 113.30356 m 13.22917,0 V -71.526792 m 13.22916,0 V 113.30356 m 13.22917,0 V -71.526792 m 13.22917,0 V 113.30356 m 13.22916,0 V -71.526792 m 13.22917,0 V 113.30356 m 13.22917,0 V -71.526792" />
      <path
         sodipodi:nodetypes="cccccccccccccccccccccccccccc"
         style="display:inline;fill:none;stroke:#000000;stroke-width:0.46620467"
         inkscape:connector-curvature="0"
         id="path6195"
         d="m -418.41964,-58.297626 h 184.83034 m 0,13.229167 h -184.83034 m 0,13.229167 h 184.83034 m 0,13.229166 h -184.83034 m 0,13.2291668 h 184.83034 m 0,13.2291665 h -184.83034 m 0,13.2291667 h 184.83034 m 0,13.229166 h -184.83034 m 0,13.229167 h 184.83034 m 0,13.229166 h -184.83034 m 0,13.229167 h 184.83034 m 0,13.229166 h -184.83034 m 0,13.229164 h 184.83034 m 0,13.22917 h -184.83034" />
      <rect
         style="display:inline;fill:none;stroke:#000000;stroke-width:0.41162524"
         id="rect6193"
         y="-71.585556"
         x="-418.47842"
         height="185.32587"
         width="185.13689" />
    </g>
  </g>
</svg>
